{
	"asset":{
		"generator":"Khronos glTF Blender I/O v3.5.30",
		"version":"2.0"
	},
	"scene":0,
	"scenes":[
		{
			"name":"Scene",
			"nodes":[
				0,
				1,
				2,
				3
			]
		}
	],
	"nodes":[
		{
			"mesh":0,
			"name":"body",
			"translation":[
				0,
				0.885356605052948,
				0
			]
		},
		{
			"mesh":1,
			"name":"eyes",
			"rotation":[
				0,
				0.15559186041355133,
				0,
				0.9878214597702026
			],
			"scale":[
				0.19309942424297333,
				0.26627761125564575,
				0.06668189913034439
			],
			"translation":[
				0.30788499116897583,
				0.885356605052948,
				0.7614140510559082
			]
		},
		{
			"mesh":2,
			"name":"hat",
			"scale":[
				1,
				0.1694624423980713,
				1
			],
			"translation":[
				0,
				1.5165691375732422,
				0
			]
		},
		{
			"mesh":3,
			"name":"ring",
			"scale":[
				1.0307996273040771,
				0.17468179762363434,
				1.0307996273040771
			],
			"translation":[
				0,
				1.462336540222168,
				0
			]
		}
	],
	"materials":[
		{
			"doubleSided":true,
			"name":"white",
			"pbrMetallicRoughness":{
				"baseColorFactor":[
					0.800000011920929,
					0.800000011920929,
					0.800000011920929,
					1
				],
				"metallicFactor":0
			}
		},
		{
			"doubleSided":true,
			"name":"black hole",
			"pbrMetallicRoughness":{
				"baseColorFactor":[
					0,
					0,
					0,
					1
				],
				"metallicFactor":0,
				"roughnessFactor":0.699999988079071
			}
		},
		{
			"doubleSided":true,
			"name":"Material",
			"pbrMetallicRoughness":{
				"baseColorFactor":[
					0.16793358325958252,
					0.010408477857708931,
					0.8000000715255737,
					1
				],
				"metallicFactor":0,
				"roughnessFactor":0.699999988079071
			}
		},
		{
			"doubleSided":true,
			"name":"Material.001",
			"pbrMetallicRoughness":{
				"baseColorFactor":[
					0.7918071150779724,
					0.46627312898635864,
					0,
					1
				],
				"metallicFactor":0,
				"roughnessFactor":0.699999988079071
			}
		}
	],
	"meshes":[
		{
			"name":"Cube",
			"primitives":[
				{
					"attributes":{
						"POSITION":0,
						"TEXCOORD_0":1,
						"NORMAL":2
					},
					"indices":3,
					"material":0
				}
			]
		},
		{
			"name":"Sphere.001",
			"primitives":[
				{
					"attributes":{
						"POSITION":4,
						"TEXCOORD_0":5,
						"NORMAL":6
					},
					"indices":7,
					"material":1
				},
				{
					"attributes":{
						"POSITION":8,
						"TEXCOORD_0":9,
						"NORMAL":10
					},
					"indices":11,
					"material":0
				}
			]
		},
		{
			"name":"Cylinder",
			"primitives":[
				{
					"attributes":{
						"POSITION":12,
						"TEXCOORD_0":13,
						"NORMAL":14
					},
					"indices":15,
					"material":2
				}
			]
		},
		{
			"name":"Cylinder.001",
			"primitives":[
				{
					"attributes":{
						"POSITION":16,
						"TEXCOORD_0":17,
						"NORMAL":18
					},
					"indices":19,
					"material":3
				}
			]
		}
	],
	"accessors":[
		{
			"bufferView":0,
			"componentType":5126,
			"count":359,
			"max":[
				1.3145811557769775,
				0.8395062685012817,
				0.8395062685012817
			],
			"min":[
				-1.3145811557769775,
				-1.8485623598098755,
				-0.8395062685012817
			],
			"type":"VEC3"
		},
		{
			"bufferView":1,
			"componentType":5126,
			"count":359,
			"type":"VEC2"
		},
		{
			"bufferView":2,
			"componentType":5126,
			"count":359,
			"type":"VEC3"
		},
		{
			"bufferView":3,
			"componentType":5123,
			"count":1968,
			"type":"SCALAR"
		},
		{
			"bufferView":4,
			"componentType":5126,
			"count":1118,
			"max":[
				0.9999997019767761,
				1,
				0.9999993443489075
			],
			"min":[
				-3.869324207305908,
				-1,
				-4.714138031005859
			],
			"type":"VEC3"
		},
		{
			"bufferView":5,
			"componentType":5126,
			"count":1118,
			"type":"VEC2"
		},
		{
			"bufferView":6,
			"componentType":5126,
			"count":1118,
			"type":"VEC3"
		},
		{
			"bufferView":7,
			"componentType":5123,
			"count":5760,
			"type":"SCALAR"
		},
		{
			"bufferView":8,
			"componentType":5126,
			"count":1118,
			"max":[
				0.5019878149032593,
				0.5992345809936523,
				1.1061952114105225
			],
			"min":[
				-3.1512985229492188,
				0.16612982749938965,
				-2.1443281173706055
			],
			"type":"VEC3"
		},
		{
			"bufferView":9,
			"componentType":5126,
			"count":1118,
			"type":"VEC2"
		},
		{
			"bufferView":10,
			"componentType":5126,
			"count":1118,
			"type":"VEC3"
		},
		{
			"bufferView":11,
			"componentType":5123,
			"count":5760,
			"type":"SCALAR"
		},
		{
			"bufferView":12,
			"componentType":5126,
			"count":426,
			"max":[
				1.2893612384796143,
				7.797673225402832,
				1.2893612384796143
			],
			"min":[
				-1.2893612384796143,
				-1.553512692451477,
				-1.2893612384796143
			],
			"type":"VEC3"
		},
		{
			"bufferView":13,
			"componentType":5126,
			"count":426,
			"type":"VEC2"
		},
		{
			"bufferView":14,
			"componentType":5126,
			"count":426,
			"type":"VEC3"
		},
		{
			"bufferView":15,
			"componentType":5123,
			"count":2106,
			"type":"SCALAR"
		},
		{
			"bufferView":16,
			"componentType":5126,
			"count":66,
			"max":[
				0.5735830068588257,
				2.4456703662872314,
				0.5735830068588257
			],
			"min":[
				-0.5735829472541809,
				0.9999995231628418,
				-0.5735829472541809
			],
			"type":"VEC3"
		},
		{
			"bufferView":17,
			"componentType":5126,
			"count":66,
			"type":"VEC2"
		},
		{
			"bufferView":18,
			"componentType":5126,
			"count":66,
			"type":"VEC3"
		},
		{
			"bufferView":19,
			"componentType":5123,
			"count":192,
			"type":"SCALAR"
		}
	],
	"bufferViews":[
		{
			"buffer":0,
			"byteLength":4308,
			"byteOffset":0,
			"target":34962
		},
		{
			"buffer":0,
			"byteLength":2872,
			"byteOffset":4308,
			"target":34962
		},
		{
			"buffer":0,
			"byteLength":4308,
			"byteOffset":7180,
			"target":34962
		},
		{
			"buffer":0,
			"byteLength":3936,
			"byteOffset":11488,
			"target":34963
		},
		{
			"buffer":0,
			"byteLength":13416,
			"byteOffset":15424,
			"target":34962
		},
		{
			"buffer":0,
			"byteLength":8944,
			"byteOffset":28840,
			"target":34962
		},
		{
			"buffer":0,
			"byteLength":13416,
			"byteOffset":37784,
			"target":34962
		},
		{
			"buffer":0,
			"byteLength":11520,
			"byteOffset":51200,
			"target":34963
		},
		{
			"buffer":0,
			"byteLength":13416,
			"byteOffset":62720,
			"target":34962
		},
		{
			"buffer":0,
			"byteLength":8944,
			"byteOffset":76136,
			"target":34962
		},
		{
			"buffer":0,
			"byteLength":13416,
			"byteOffset":85080,
			"target":34962
		},
		{
			"buffer":0,
			"byteLength":11520,
			"byteOffset":98496,
			"target":34963
		},
		{
			"buffer":0,
			"byteLength":5112,
			"byteOffset":110016,
			"target":34962
		},
		{
			"buffer":0,
			"byteLength":3408,
			"byteOffset":115128,
			"target":34962
		},
		{
			"buffer":0,
			"byteLength":5112,
			"byteOffset":118536,
			"target":34962
		},
		{
			"buffer":0,
			"byteLength":4212,
			"byteOffset":123648,
			"target":34963
		},
		{
			"buffer":0,
			"byteLength":792,
			"byteOffset":127860,
			"target":34962
		},
		{
			"buffer":0,
			"byteLength":528,
			"byteOffset":128652,
			"target":34962
		},
		{
			"buffer":0,
			"byteLength":792,
			"byteOffset":129180,
			"target":34962
		},
		{
			"buffer":0,
			"byteLength":384,
			"byteOffset":129972,
			"target":34963
		}
	],
	"buffers":[
		{
			"byteLength":130356,
			"uri":"data:application/octet-stream;base64,"
		}
	]
}
