<svg xmlns="http://www.w3.org/2000/svg" version="1.1" xmlns:xlink="http://www.w3.org/1999/xlink" xmlns:svgjs="http://svgjs.dev/svgjs" width="2000" height="2000" viewBox="0 0 2000 2000"><g transform="matrix(1,0,0,1,-0.28443113772425477,-0.28443113772459583)"><svg viewBox="0 0 334 334" data-background-color="#ffffff" preserveAspectRatio="xMidYMid meet" height="2000" width="2000" xmlns="http://www.w3.org/2000/svg" xmlns:xlink="http://www.w3.org/1999/xlink"><g id="tight-bounds" transform="matrix(1,0,0,1,0.04749999999998522,0.04750000000001364)"><svg viewBox="0 0 333.90454557049503 333.90454557049503" height="333.90454557049503" width="333.90454557049503"><g><svg></svg></g><g><svg viewBox="0 0 333.90454557049503 333.90454557049503" height="333.90454557049503" width="333.90454557049503"><g><path d="M0 166.952c0-92.205 74.747-166.952 166.952-166.952 92.205 0 166.952 74.747 166.953 166.952 0 92.205-74.747 166.952-166.953 166.953-92.205 0-166.952-74.747-166.952-166.953zM166.952 316.63c82.665 0 149.677-67.013 149.678-149.678 0-82.665-67.013-149.677-149.678-149.677-82.665 0-149.677 67.013-149.677 149.677 0 82.665 67.013 149.677 149.677 149.678z" data-fill-palette-color="tertiary" fill="#ff0d00" stroke="transparent"></path><ellipse rx="160.27418187383762" ry="160.27418187383762" cx="166.95227278524752" cy="166.95227278524752" fill="#ff0d00" stroke="transparent" stroke-width="0" fill-opacity="1" data-fill-palette-color="tertiary"></ellipse></g><g transform="matrix(1,0,0,1,119.89891877019495,71.17305217166896)"><svg viewBox="0 0 94.10670803010512 191.55844122715712" height="191.55844122715712" width="94.10670803010512"><g><svg viewBox="0 0 94.10670803010512 191.55844122715712" height="191.55844122715712" width="94.10670803010512"><g><svg viewBox="0 0 94.10670803010512 191.55844122715712" height="191.55844122715712" width="94.10670803010512"><g id="textblocktransform"><svg viewBox="0 0 94.10670803010512 191.55844122715712" height="191.55844122715712" width="94.10670803010512" id="textblock"><g><svg viewBox="0 0 94.10670803010512 191.55844122715712" height="191.55844122715712" width="94.10670803010512"><g transform="matrix(1,0,0,1,0,0)"><svg width="94.10670803010512" viewBox="1.9 -42.95 21.1 42.95" height="191.55844122715712" data-palette-color="#ffffff"><path d="M1.9 0L1.9-42.95 13.55-42.95Q18.25-42.95 20.38-40.65 22.5-38.35 22.5-33.15L22.5-33.15 22.5-31.25Q22.5-25.1 18.1-23.9L18.1-23.9Q20.8-23.2 21.9-20.65 23-18.1 23-13.9L23-13.9Q23-7.05 20.95-3.53 18.9 0 13.55 0L13.55 0 1.9 0ZM10.3-26.8L12.05-26.8Q13.15-26.8 13.55-27.63 13.95-28.45 13.95-29.95L13.95-29.95 13.95-34.25Q13.95-36.35 12.1-36.35L12.1-36.35 10.3-36.35 10.3-26.8ZM11.15-7.55Q14.5-7.55 14.5-10.75L14.5-10.75 14.5-16.1Q14.5-18.05 13.93-19.05 13.35-20.05 11.9-20.05L11.9-20.05 10.3-20.05 10.3-7.6 11.15-7.55Z" opacity="1" transform="matrix(1,0,0,1,0,0)" fill="#ffffff" class="wordmark-text-0" data-fill-palette-color="quaternary" id="text-0"></path></svg></g></svg></g></svg></g></svg></g><g></g></svg></g></svg></g></svg></g><defs></defs></svg><rect width="333.90454557049503" height="333.90454557049503" fill="none" stroke="none" visibility="hidden"></rect></g></svg></g></svg>